<?xml version="1.0" encoding="iso-8859-1"?>
<!-- Generator: Adobe Illustrator 28.6.0, SVG Export Plug-In . SVG Version: 9.03 Build 54939)  -->
<svg version="1.1" xmlns="http://www.w3.org/2000/svg" xmlns:xlink="http://www.w3.org/1999/xlink" x="0px" y="0px"
	 viewBox="0 0 1813.484 688.062" style="enable-background:new 0 0 1813.484 688.062;" xml:space="preserve">
<g id="Logo">
	<g>
		<path d="M950.487,457.227c-1.327-2.228-3.137-3.989-5.431-5.284c-2.294-1.296-4.819-1.944-7.574-1.944
			c-2.776,0-5.313,0.648-7.612,1.944c-2.299,1.295-4.115,3.057-5.446,5.284c-1.332,2.228-1.997,4.673-1.997,7.335
			s0.666,5.108,1.997,7.335c1.331,2.228,3.147,3.99,5.446,5.285c2.299,1.295,4.836,1.943,7.612,1.943
			c2.755,0,5.28-0.648,7.574-1.943c2.294-1.295,4.104-3.057,5.431-5.285c1.326-2.227,1.989-4.673,1.989-7.335
			S951.813,459.455,950.487,457.227z M948.436,470.792c-1.106,1.879-2.622,3.362-4.547,4.447c-1.926,1.086-4.061,1.629-6.406,1.629
			c-2.356,0-4.499-0.543-6.429-1.629c-1.93-1.085-3.451-2.568-4.562-4.447c-1.111-1.88-1.667-3.956-1.667-6.23
			s0.556-4.352,1.667-6.237c1.111-1.885,2.632-3.375,4.562-4.471c1.931-1.095,4.074-1.643,6.429-1.643
			c2.335,0,4.468,0.548,6.399,1.643c1.93,1.096,3.449,2.586,4.555,4.471c1.106,1.884,1.659,3.963,1.659,6.237
			S949.542,468.913,948.436,470.792z M943.628,470.216l-0.184-2.504c-0.052-0.717-0.21-1.316-0.476-1.798
			c-0.266-0.481-0.666-0.855-1.198-1.121c-0.156-0.078-0.352-0.127-0.534-0.187c0.301-0.108,0.597-0.22,0.841-0.374
			c0.625-0.394,1.075-0.883,1.352-1.467c0.276-0.584,0.415-1.244,0.415-1.982c0-0.942-0.221-1.744-0.661-2.404
			c-0.441-0.661-1.068-1.165-1.882-1.513c-0.814-0.348-1.775-0.522-2.881-0.522h-6.682v16.084h2.12v-6.79h4.824
			c0.655,0,1.173,0.082,1.552,0.246s0.658,0.43,0.837,0.799c0.179,0.369,0.294,0.875,0.345,1.521l0.139,2.012
			c0.031,0.533,0.092,0.976,0.184,1.329c0.092,0.353,0.235,0.648,0.43,0.883h2.181c-0.215-0.327-0.379-0.658-0.491-0.991
			C943.746,471.105,943.669,470.698,943.628,470.216z M940.264,463.388c-0.461,0.21-1.014,0.315-1.659,0.315h-4.747v-5.423h4.563
			c0.707,0,1.301,0.103,1.782,0.307c0.481,0.205,0.848,0.51,1.099,0.914c0.251,0.405,0.376,0.904,0.376,1.498
			c0,0.584-0.12,1.075-0.361,1.475C941.075,462.873,940.724,463.178,940.264,463.388z"/>
		<path d="M904.302,260.685c-1.033,5.143-42.212,203.957-43.772,211.743c6.738,0,43.523,0,48.081,0
			c1.14-5.143,42.226-203.986,43.865-211.743C945.737,260.685,908.883,260.685,904.302,260.685z M827.123,260.685
			c-1.039,5.143-42.219,203.957-43.771,211.743c6.738,0,43.515,0,48.095,0c1.118-5.143,42.204-203.986,43.85-211.743
			C868.48,260.685,831.689,260.685,827.123,260.685z M738.71,313.653c-1.026,5.072-31.242,151.111-32.809,158.775
			c6.738,0,43.523,0,48.095,0c1.125-5.057,31.264-151.139,32.888-158.775C780.068,313.653,743.297,313.653,738.71,313.653z
			 M671.118,313.653c-0.869,4.161-4.744,22.951-4.744,22.951h-3.376l-0.249-3.106c-2.08-19.966-19.175-24.176-30.573-24.176
			c-23.906,0-51.358,12.779-65.946,85.108c-6.654,33.236-4.759,51.871,4.915,63.752c5.271,6.539,13.121,9.716,23.827,9.716
			c17.445,0,33.921-7.757,42.739-23.114l1.026-1.667h3.54l-7.323,35.608c-4.323,20.586-13.049,23.243-22.117,23.243
			c-6.902,0-8.377-2.614-10.179-4.822c-1.296-1.596-1.56-7.266-1.56-11.148c0,0,0,0,0-0.043c-6.126,0-38.593,0-43.345,0
			c0,0-0.94,8.498-0.598,11.361c0.955,7.551,7.081,31.969,48.523,31.969c44.641,0,68.98-18.905,76.844-56.857
			c0,0,31.42-150.975,33.052-158.775C708.935,313.653,675.606,313.653,671.118,313.653z M653.154,392.35
			c-6.902,33.115-13.456,41.336-27.025,41.336c-4.823,0-8.37-1.389-10.778-4.331c-4.758-5.848-4.915-14.865-0.085-38.429
			c6.81-33.13,14.318-47.369,28.308-47.369c4.587,0,8.034,1.382,10.272,4.195C658.603,353.557,658.076,368.615,653.154,392.35z
			 M576.347,309.322c-2.336,0-4.659,0-4.659,0c-15.799,0-34.54,11.069-43.693,28.806l-0.94,1.824h-3.547
			c0,0,4.231-20.465,5.442-26.299c-0.955,0-2.337,0-4.146,0v-0.042c-5.271,0-39.113,0-45.759,0c0.256,2.002,0.519,4.088,0.519,6.339
			c0,5.1-0.691,10.977-1.987,18.05c-8.89,43.124-26.598,128.602-27.795,134.428c6.724,0,43.594,0,48.167,0
			c3.02-14.901,18.05-87.6,18.05-87.6c4.573-21.882,17.352-32.055,40.317-32.055c3.967,0,7.508,0.214,10.87,0.698
			C568.319,348.328,575.051,315.818,576.347,309.322z M452.381,358.501c1.211-5.805,1.824-10.991,1.824-15.692
			c-0.086-8.363-2.158-15.023-6.219-20.009c-7.429-9.188-22.274-13.477-46.706-13.477c-21.932,0-59.649,6.496-70.619,48.936
			c6.638,0,36.606,0,40.829,0c4.06-15.728,10.542-22.018,22.794-22.018c5.442,0,9.588,1.546,12.088,4.652
			c2.771,3.398,3.455,8.334,2.158,14.745c-2.422,11.725-8.975,17.679-22.537,20.664l-22.787,5.221
			c-34.441,7.722-48.174,20.472-54.386,50.646c-3.198,15.429-1.738,27.039,4.224,34.433c5.52,6.738,15.023,10.122,28.229,10.122
			c15.97,0,34.626-8.156,42.91-21.405l0.955-1.546h2.586l-0.513,6.617c-0.264,3.676-0.52,7.195-0.52,10.578
			c0,0.492,0.085,0.976,0.085,1.46c5.185,0,39.021,0,45.759,0c-0.349-1.952-0.519-4.031-0.519-6.282
			c-0.093-7.109,1.382-15.636,3.625-26.826L452.381,358.501z M395.923,416.568c-2.679,12.865-8.284,29.931-26.071,29.931
			c-4.402,0-8.021-1.588-10.45-4.616c-3.27-4.032-4.224-10.129-2.678-17.551c2.678-12.708,7.778-19.646,17.793-23.849
			c3.711-1.595,7.166-2.457,10.265-3.233c3.975-1.012,10.371-2.037,13.306-3.184c1.724-0.692,2.664-1.518,2.664-1.518h0.1
			L395.923,416.568z M225.543,448.06c-5.699,0-9.759-1.589-12.515-4.908c-7.173-8.775-3.796-29.326,5.435-74.08
			c11.91-57.669,18.82-77.628,39.804-77.628c5.185,0,8.463,2.358,10.699,5.314c2.073,2.814,2.336,5.827,2.336,11.468
			c0.085,4.986-3.454,27.567-3.454,27.567s42.817,0,47.391,0c0.869-4.003,2.336-11.07,2.336-11.07
			c1.553-7.764,2.336-14.816,2.336-21.198c-0.085-11.711-2.935-21.027-8.463-27.894c-8.64-10.543-24.432-15.928-46.877-15.928
			c-56.295,0-80.984,27.98-98.164,110.751c-10.699,51.828-10.186,78.953,1.809,93.727c8.719,10.628,24.432,15.65,49.392,15.65
			c46.016,0,74.501-24.632,84.509-73.148c0,0,1.56-7.55,2.508-12.124c-6.824,0-43.252,0-47.739,0
			C248.593,433.928,242.033,448.06,225.543,448.06z"/>
		<path style="fill:#00843D;" d="M790.956,294.927c0,0-31.95,2.48-54.143-0.588c-51.02-7.018-98.494-42.238-119.475-53.959
			c-45.6-25.427-64.064-26.952-87.636-20.283c-38.692,10.527-61.437,42.311-83.263,79.332c-4.171-2.039-8.598-3.62-13.136-4.758
			c12.493-26.53,59.986-111.851,158.039-132.152C689.522,142.143,794.74,207.64,790.956,294.927z"/>
	</g>
	<g>
		<polygon points="1013.411,471.197 1006.424,471.197 1050.015,260.804 1057.002,260.804 		"/>
		<g>
			<path d="M1137.001,340.541l16.52-77.386h12.962l20.188,46.981c1.177,2.861,2.396,5.895,3.654,9.101
				c1.259,3.208,2.459,6.341,3.6,9.404h-2.771c0.615-3.225,1.226-6.346,1.834-9.361c0.606-3.016,1.217-6.064,1.834-9.143
				l9.998-46.981h11.957l-16.44,77.386h-12.852l-17.88-41.709c-1.231-2.898-2.431-5.752-3.6-8.561
				c-1.167-2.807-2.309-5.583-3.424-8.328c-1.113-2.743-2.205-5.449-3.274-8.11h3.723c-0.815,4.075-1.649,8.182-2.499,12.321
				c-0.853,4.141-1.731,8.366-2.635,12.678l-8.941,41.709H1137.001z"/>
			<path d="M1239.12,342.089c-4.855,0-9.073-0.946-12.65-2.839c-3.577-1.891-6.318-4.582-8.22-8.07
				c-1.902-3.485-2.854-7.584-2.854-12.295c0-1.177,0.063-2.381,0.19-3.614c0.127-1.231,0.308-2.508,0.545-3.831
				c1.123-5.815,3.211-10.865,6.264-15.148c3.051-4.284,6.851-7.577,11.398-9.878c4.547-2.299,9.556-3.45,15.026-3.45
				c4.801,0,8.981,0.942,12.539,2.825c3.56,1.886,6.297,4.561,8.206,8.03c1.912,3.469,2.868,7.513,2.868,12.133
				c0,1.141-0.063,2.323-0.19,3.546c-0.127,1.221-0.317,2.468-0.571,3.737c-1.195,6.158-3.269,11.393-6.221,15.705
				c-2.954,4.312-6.658,7.581-11.114,9.808C1249.879,340.975,1244.808,342.089,1239.12,342.089z M1240.097,332.579
				c3.297,0,6.282-0.838,8.953-2.513c2.673-1.675,4.913-4.049,6.726-7.119c1.811-3.072,3.107-6.672,3.885-10.801
				c0.219-1.16,0.38-2.238,0.491-3.234c0.108-0.996,0.162-1.938,0.162-2.825c0-2.882-0.489-5.341-1.468-7.377
				c-0.977-2.039-2.419-3.589-4.319-4.648c-1.902-1.059-4.23-1.59-6.985-1.59c-3.243,0-6.191,0.813-8.845,2.433
				c-2.654,1.621-4.876,3.936-6.67,6.942c-1.794,3.006-3.079,6.567-3.859,10.679c-0.216,1.141-0.385,2.231-0.503,3.274
				c-0.117,1.043-0.176,2.024-0.176,2.947c0,2.863,0.479,5.331,1.44,7.405s2.381,3.664,4.265,4.768
				C1235.08,332.027,1237.379,332.579,1240.097,332.579z"/>
			<path d="M1293.898,341.98c-3.516,0-6.536-0.611-9.063-1.834c-2.527-1.221-4.465-2.983-5.815-5.284
				c-1.348-2.299-2.025-5.054-2.025-8.26c0-0.742,0.047-1.55,0.136-2.419c0.092-0.869,0.235-1.729,0.434-2.581l7.908-37.145h11.983
				l-7.607,36.058c-0.164,0.707-0.277,1.36-0.341,1.956c-0.063,0.599-0.094,1.195-0.094,1.794c0,1.738,0.329,3.161,0.991,4.265
				c0.662,1.106,1.625,1.921,2.894,2.447c1.268,0.524,2.825,0.787,4.674,0.787c2.572,0,5.078-0.547,7.513-1.644
				c2.435-1.097,4.601-2.854,6.494-5.27c1.893-2.419,3.248-5.531,4.063-9.336l6.576-31.058h11.983l-11.846,56.084h-10.951
				l2.01-10.108h1.087c-1.738,2.501-3.669,4.61-5.787,6.332c-2.121,1.721-4.458,3.02-7.01,3.899
				C1299.549,341.541,1296.815,341.98,1293.898,341.98z"/>
			<path d="M1334.134,340.541l11.846-56.084h11.142l-2.691,14.049l-2.363,1.63c1.592-3.387,3.49-6.372,5.693-8.953
				c2.201-2.581,4.718-4.615,7.553-6.102c2.835-1.484,5.909-2.226,9.225-2.226c0.615,0,1.221,0.031,1.82,0.094
				s1.177,0.16,1.738,0.287l-2.417,11.25c-0.634-0.073-1.282-0.132-1.942-0.178c-0.662-0.045-1.273-0.068-1.834-0.068
				c-2.717,0-5.439,0.658-8.166,1.97c-2.727,1.315-5.118,3.253-7.172,5.815c-2.057,2.565-3.457,5.62-4.199,9.171l-6.25,29.346
				H1334.134z"/>
			<path d="M1371.984,340.541l11.954-56.084h11.983l-11.954,56.084H1371.984z M1386.085,274.484l2.419-11.33h11.983l-2.391,11.33
				H1386.085z"/>
			<path d="M1417.577,342.089c-4.892,0-8.967-0.737-12.227-2.212c-3.262-1.477-5.698-3.596-7.311-6.36
				c-1.611-2.762-2.454-6.118-2.527-10.066l11.44-0.545c0,2.374,0.376,4.317,1.127,5.829c0.751,1.513,1.975,2.645,3.668,3.396
				c1.693,0.752,3.971,1.127,6.834,1.127c2.936,0,5.439-0.402,7.513-1.207c2.074-0.808,3.645-1.94,4.714-3.398
				c1.069-1.456,1.604-3.156,1.604-5.094c0-1.069-0.249-2.006-0.747-2.811c-0.498-0.808-1.259-1.491-2.283-2.053
				c-1.024-0.561-2.323-1.005-3.899-1.332l-9.322-1.956c-3.333-0.669-6.09-1.67-8.274-3.001c-2.182-1.332-3.8-2.931-4.85-4.796
				c-1.05-1.867-1.576-3.96-1.576-6.278c0-4.131,1.019-7.558,3.058-10.284c2.036-2.727,4.873-4.742,8.504-6.045
				c3.631-1.306,7.865-1.956,12.703-1.956c4.401,0,8.168,0.655,11.304,1.97c3.133,1.313,5.543,3.255,7.227,5.827
				c1.686,2.574,2.555,5.707,2.609,9.401l-11.196,0.491c0-0.073,0-0.16,0-0.258c0-0.101,0-0.195,0-0.287
				c-0.089-1.811-0.571-3.356-1.44-4.631c-0.869-1.278-2.111-2.243-3.723-2.896c-1.613-0.651-3.56-0.977-5.841-0.977
				c-2.393,0-4.488,0.303-6.292,0.909c-1.801,0.608-3.201,1.496-4.197,2.663c-0.998,1.17-1.496,2.569-1.496,4.199
				c0,1.104,0.223,2.064,0.667,2.879c0.444,0.815,1.177,1.508,2.201,2.078c1.024,0.571,2.386,1.038,4.089,1.4l9.376,1.874
				c3.459,0.653,6.294,1.644,8.504,2.976c2.21,1.332,3.83,2.936,4.864,4.81c1.033,1.874,1.548,4.009,1.548,6.4
				c0,4.455-1.109,8.201-3.328,11.236c-2.219,3.034-5.298,5.289-9.237,6.766C1427.427,341.351,1422.831,342.089,1417.577,342.089z"
				/>
			<path d="M1448.205,340.541l16.52-77.386h11.983l-6.656,31.112l-1.604-0.272c1.684-2.372,3.568-4.373,5.651-6.005
				c2.083-1.63,4.375-2.865,6.874-3.708c2.501-0.841,5.181-1.264,8.044-1.264c3.513,0,6.536,0.611,9.063,1.834
				c2.527,1.224,4.465,2.98,5.813,5.273c1.35,2.29,2.025,5.012,2.025,8.164c0,0.815-0.045,1.649-0.134,2.501
				c-0.092,0.85-0.237,1.722-0.437,2.607l-7.905,37.145h-11.985l7.609-36.058c0.146-0.653,0.254-1.294,0.326-1.928
				s0.108-1.242,0.108-1.82c0-1.74-0.331-3.161-0.991-4.267c-0.662-1.104-1.623-1.919-2.882-2.445
				c-1.259-0.526-2.821-0.789-4.685-0.789c-2.574,0-5.078,0.545-7.513,1.632c-2.438,1.085-4.606,2.83-6.508,5.23
				c-1.902,2.4-3.253,5.456-4.049,9.169l-6.684,31.276H1448.205z"/>
			<path d="M1508.157,340.541l11.954-56.084h11.983l-11.954,56.084H1508.157z M1522.258,274.484l2.419-11.33h11.983l-2.391,11.33
				H1522.258z"/>
			<path d="M1531.636,340.541l11.846-56.084h10.951l-2.175,10.707l-0.653-0.951c1.721-2.445,3.638-4.502,5.747-6.167
				c2.111-1.667,4.42-2.922,6.931-3.765c2.508-0.841,5.193-1.264,8.056-1.264c3.514,0,6.536,0.611,9.063,1.834
				c2.527,1.224,4.465,2.985,5.813,5.284c1.35,2.302,2.024,5.054,2.024,8.262c0,0.742-0.045,1.548-0.134,2.417
				c-0.092,0.869-0.237,1.731-0.437,2.581l-7.905,37.145h-11.985l7.609-36.058c0.162-0.707,0.275-1.362,0.341-1.97
				c0.063-0.606,0.094-1.207,0.094-1.806c0-1.703-0.326-3.103-0.977-4.199c-0.653-1.094-1.609-1.914-2.868-2.459
				c-1.259-0.543-2.821-0.815-4.688-0.815c-2.59,0-5.104,0.54-7.539,1.618c-2.438,1.078-4.603,2.83-6.494,5.256
				c-1.895,2.428-3.248,5.554-4.063,9.376l-6.576,31.058H1531.636z"/>
			<path d="M1612.832,364.017c-5.146,0-9.561-0.662-13.246-1.982c-3.687-1.325-6.48-3.262-8.382-5.815
				c-1.902-2.555-2.818-5.644-2.745-9.268l11.684-0.27c0.019,1.884,0.531,3.431,1.536,4.646c1.005,1.214,2.44,2.107,4.307,2.677
				c1.865,0.571,4.148,0.855,6.846,0.855c3.624,0,6.729-0.538,9.319-1.616c2.591-1.078,4.688-2.668,6.292-4.77
				c1.602-2.102,2.731-4.7,3.382-7.797l2.692-12.664h1.005l6.329-28.531h-0.923l3.478-15.026h10.651l-11.466,53.938
				c-1.268,5.942-3.225,10.801-5.869,14.578s-6.019,6.562-10.122,8.356C1623.497,363.12,1618.574,364.017,1612.832,364.017z
				 M1614.734,341.384c-4.239,0-7.952-0.911-11.142-2.731c-3.187-1.82-5.651-4.406-7.389-7.757
				c-1.74-3.351-2.609-7.255-2.609-11.712c0-1.266,0.068-2.529,0.204-3.791c0.134-1.259,0.329-2.539,0.582-3.845
				c1.069-5.543,2.98-10.461,5.735-14.754c2.753-4.293,6.177-7.645,10.27-10.054c4.094-2.41,8.603-3.614,13.533-3.614
				c3.875,0,7.194,0.716,9.958,2.147c2.762,1.433,4.932,3.34,6.508,5.721s2.616,5.021,3.124,7.919l-5.679,26.901
				c-1.341,3.117-3.133,5.848-5.381,8.194c-2.245,2.344-4.876,4.162-7.894,5.446C1621.54,340.74,1618.266,341.384,1614.734,341.384z
				 M1618.32,331.412c3.171,0,6.055-0.726,8.655-2.175c2.6-1.449,4.81-3.572,6.63-6.372c1.82-2.799,3.147-6.163,3.981-10.094
				c0.235-1.104,0.409-2.175,0.517-3.206c0.108-1.033,0.162-2.003,0.162-2.908c0-2.882-0.521-5.345-1.562-7.391
				c-1.043-2.048-2.527-3.61-4.455-4.688c-1.931-1.078-4.199-1.616-6.808-1.616c-3.133,0-5.968,0.761-8.504,2.28
				c-2.536,1.522-4.669,3.661-6.4,6.414c-1.729,2.753-3.011,5.961-3.845,9.62c-0.073,0.324-0.139,0.641-0.202,0.949
				c-0.066,0.31-0.122,0.627-0.178,0.951c-0.181,1.015-0.317,1.994-0.406,2.936c-0.092,0.942-0.136,1.839-0.136,2.689
				c0,2.736,0.507,5.045,1.522,6.931c1.015,1.884,2.459,3.3,4.333,4.251C1613.499,330.935,1615.73,331.412,1618.32,331.412z"/>
			<path d="M1110.722,423.552l1.848-8.669l14.836,0.545l18.641-0.545l-1.848,8.669l-18.476-0.625L1110.722,423.552z
				 M1124.309,470.967c-2.663,0-4.885-0.357-6.67-1.073c-1.785-0.716-3.126-1.797-4.021-3.248c-0.897-1.449-1.346-3.279-1.346-5.489
				c0-0.688,0.049-1.421,0.15-2.201c0.099-0.777,0.24-1.602,0.42-2.473l6.085-28.477l1.956-9.427l1.823-8.64l2.635-12.229h11.982
				l-2.635,12.201l-1.902,9.021l-2.01,9.131l-5.815,27.659c-0.092,0.418-0.169,0.827-0.23,1.224
				c-0.066,0.399-0.096,0.752-0.096,1.059c0,0.798,0.162,1.433,0.489,1.902c0.326,0.472,0.82,0.815,1.482,1.033
				c0.66,0.216,1.543,0.326,2.649,0.326c1.158,0,2.309,0,3.45,0c1.141,0,2.283,0,3.424,0l-2.118,9.7c-1.613,0-3.229,0-4.852,0
				C1127.538,470.967,1125.922,470.967,1124.309,470.967z"/>
			<path d="M1139.612,470.967l16.52-77.386h11.983l-6.656,31.112l-1.604-0.272c1.684-2.372,3.568-4.373,5.651-6.005
				c2.083-1.63,4.375-2.865,6.874-3.708c2.501-0.841,5.181-1.264,8.044-1.264c3.513,0,6.536,0.611,9.063,1.834
				c2.527,1.224,4.465,2.98,5.813,5.273c1.35,2.29,2.024,5.012,2.024,8.164c0,0.815-0.045,1.649-0.134,2.501
				c-0.092,0.85-0.237,1.721-0.437,2.607l-7.905,37.145h-11.985l7.609-36.058c0.146-0.653,0.254-1.294,0.326-1.928
				c0.073-0.634,0.108-1.242,0.108-1.82c0-1.74-0.331-3.161-0.991-4.267c-0.662-1.104-1.623-1.919-2.882-2.445
				c-1.259-0.526-2.821-0.789-4.685-0.789c-2.574,0-5.078,0.545-7.513,1.632c-2.438,1.085-4.605,2.83-6.508,5.23
				c-1.902,2.4-3.253,5.456-4.049,9.169l-6.684,31.276H1139.612z"/>
			<path d="M1225.672,472.515c-5.146,0-9.514-0.996-13.11-2.987c-3.598-1.994-6.311-4.746-8.138-8.26
				c-1.832-3.516-2.746-7.537-2.746-12.065c0-1.287,0.068-2.581,0.204-3.887c0.136-1.303,0.348-2.635,0.639-3.993
				c1.158-5.526,3.192-10.385,6.099-14.58c2.907-4.192,6.527-7.452,10.855-9.782c4.328-2.327,9.103-3.49,14.319-3.49
				c4.965,0,9.185,0.909,12.664,2.729c3.478,1.823,6.104,4.394,7.88,7.717c1.776,3.326,2.663,7.224,2.663,11.698
				c0,1.069-0.052,2.161-0.15,3.274c-0.099,1.113-0.249,2.252-0.449,3.41c-0.2,1.16-0.453,2.337-0.761,3.532h-45.025l1.686-7.962
				h38.829l-6.141,4.404c0.272-1.306,0.47-2.511,0.596-3.614c0.127-1.106,0.19-2.156,0.19-3.152c0-2.736-0.479-5.054-1.44-6.957
				s-2.356-3.337-4.183-4.307c-1.832-0.968-4.042-1.454-6.63-1.454c-2.99,0-5.745,0.676-8.262,2.024
				c-2.518,1.35-4.69,3.387-6.52,6.113c-1.83,2.727-3.189,6.102-4.077,10.122l-0.679,2.99c-0.235,1.015-0.404,2.036-0.503,3.07
				c-0.101,1.033-0.15,2.039-0.15,3.016c0,2.699,0.512,5.031,1.536,6.996c1.024,1.966,2.494,3.464,4.415,4.498
				c1.921,1.033,4.195,1.55,6.82,1.55c2.464,0,4.714-0.369,6.752-1.101s3.845-1.78,5.421-3.138c1.576-1.36,2.962-2.999,4.157-4.918
				l10.977,1.113c-1.792,3.624-4.07,6.733-6.832,9.333c-2.764,2.6-5.923,4.591-9.484,5.977
				C1233.537,471.822,1229.73,472.515,1225.672,472.515z"/>
			<path d="M1295.472,470.967l-7.173-56.084h11.602l3.288,30.705c0.218,3.044,0.399,5.738,0.542,8.084
				c0.146,2.346,0.254,4.833,0.326,7.459h-1.031c1.195-3.006,2.281-5.702,3.26-8.084c0.977-2.381,2.029-4.859,3.152-7.431
				l15.435-30.734h12.389l1.766,30.623c0.127,2.32,0.233,4.911,0.312,7.771c0.082,2.863,0.122,5.479,0.122,7.854h-1.113
				c1.141-2.645,2.328-5.327,3.56-8.044c1.231-2.717,2.381-5.226,3.45-7.527l16.574-30.677h12.635l-31.438,56.084h-12.036
				l-1.82-31.492c-0.127-3.387-0.233-6.59-0.312-9.606c-0.082-3.016-0.15-6.391-0.204-10.122h2.962
				c-1.614,4.096-3.107,7.757-4.484,10.991c-1.376,3.234-2.635,6.092-3.776,8.572l-15.815,31.657H1295.472z"/>
			<path d="M1393.593,472.515c-4.855,0-9.073-0.946-12.65-2.839c-3.577-1.891-6.318-4.582-8.22-8.07
				c-1.902-3.485-2.854-7.584-2.854-12.295c0-1.177,0.063-2.381,0.19-3.614c0.127-1.231,0.308-2.508,0.545-3.831
				c1.123-5.815,3.211-10.865,6.264-15.148c3.051-4.284,6.851-7.577,11.398-9.878c4.547-2.299,9.556-3.45,15.026-3.45
				c4.801,0,8.981,0.942,12.539,2.825c3.56,1.886,6.297,4.561,8.206,8.03c1.912,3.469,2.868,7.513,2.868,12.133
				c0,1.141-0.063,2.323-0.19,3.546c-0.127,1.221-0.317,2.468-0.571,3.737c-1.195,6.158-3.269,11.393-6.221,15.705
				c-2.954,4.312-6.658,7.581-11.114,9.808C1404.352,471.402,1399.282,472.515,1393.593,472.515z M1394.57,463.006
				c3.297,0,6.282-0.838,8.953-2.513c2.673-1.675,4.913-4.049,6.726-7.119c1.811-3.072,3.107-6.672,3.885-10.801
				c0.219-1.16,0.38-2.238,0.491-3.234c0.108-0.996,0.162-1.938,0.162-2.825c0-2.882-0.489-5.341-1.468-7.377
				c-0.977-2.039-2.419-3.589-4.319-4.648c-1.902-1.059-4.23-1.59-6.985-1.59c-3.243,0-6.191,0.813-8.845,2.433
				c-2.654,1.621-4.876,3.936-6.67,6.942s-3.079,6.567-3.859,10.679c-0.216,1.141-0.385,2.231-0.503,3.274
				c-0.117,1.043-0.176,2.024-0.176,2.947c0,2.863,0.479,5.331,1.44,7.405c0.961,2.074,2.381,3.664,4.265,4.768
				C1389.554,462.454,1391.853,463.006,1394.57,463.006z"/>
			<path d="M1428.242,470.967l11.846-56.084h11.142l-2.691,14.049l-2.363,1.63c1.592-3.387,3.49-6.372,5.693-8.953
				c2.201-2.581,4.718-4.615,7.553-6.102c2.835-1.484,5.909-2.226,9.225-2.226c0.615,0,1.221,0.031,1.82,0.094
				s1.177,0.16,1.738,0.287l-2.417,11.25c-0.634-0.073-1.282-0.132-1.942-0.178c-0.662-0.045-1.273-0.068-1.834-0.068
				c-2.717,0-5.439,0.658-8.166,1.97c-2.727,1.315-5.118,3.253-7.173,5.815c-2.057,2.565-3.457,5.62-4.199,9.171l-6.25,29.346
				H1428.242z"/>
			<path d="M1466.172,470.967l16.44-77.386h11.983l-16.412,77.386H1466.172z"/>
			<path d="M1512.42,472.299c-4.166,0-7.83-0.916-10.991-2.745c-3.161-1.83-5.611-4.418-7.351-7.771
				c-1.738-3.349-2.607-7.262-2.607-11.738c0-1.158,0.063-2.349,0.19-3.572c0.125-1.224,0.308-2.478,0.543-3.762
				c1.069-5.761,2.992-10.843,5.773-15.245c2.781-4.401,6.228-7.821,10.341-10.256c4.112-2.438,8.631-3.657,13.558-3.657
				c3.84,0,7.133,0.726,9.876,2.175c2.745,1.449,4.897,3.396,6.454,5.841c1.559,2.447,2.546,5.19,2.962,8.234l-5.733,27.309
				c-1.449,3.095-3.302,5.782-5.557,8.056s-4.864,4.03-7.826,5.27C1519.09,471.679,1515.88,472.299,1512.42,472.299z
				 M1516.06,462.327c3.098,0,5.937-0.702,8.518-2.107c2.581-1.402,4.801-3.485,6.658-6.25c1.855-2.762,3.211-6.137,4.061-10.12
				c0.272-1.252,0.458-2.414,0.557-3.492c0.101-1.078,0.15-2.069,0.15-2.976c0-2.879-0.521-5.348-1.562-7.405
				c-1.043-2.055-2.522-3.622-4.443-4.7c-1.919-1.078-4.166-1.618-6.738-1.618c-3.243,0-6.172,0.834-8.791,2.501
				c-2.616,1.665-4.796,4.025-6.534,7.079c-1.74,3.051-2.971,6.635-3.697,10.745c-0.162,0.888-0.294,1.848-0.392,2.882
				c-0.101,1.031-0.15,1.938-0.15,2.717c0,2.771,0.498,5.108,1.494,7.011c0.996,1.902,2.419,3.333,4.267,4.293
				C1511.305,461.848,1513.507,462.327,1516.06,462.327z M1530.38,470.967l2.99-15.597h0.679l6.005-28.803h-1.63l6.982-32.986
				h11.983l-16.412,77.386H1530.38z"/>
		</g>
	</g>
</g>
<g id="Guides">
</g>
</svg>
