<svg width="16" height="18" viewBox="0 0 16 18" fill="none" xmlns="http://www.w3.org/2000/svg">
<path d="M15.8651 10.2436L14.4676 5.11722C14.058 3.61539 13.1677 2.29626 11.9383 1.3695C10.7089 0.442742 9.21094 -0.0384528 7.68251 0.0024026C6.15408 0.043258 4.6829 0.603819 3.50283 1.59498C2.32276 2.58614 1.50151 3.95103 1.16963 5.47268L0.0876347 10.4334C-0.0318806 10.9815 -0.0291174 11.55 0.0957204 12.0969C0.220558 12.6438 0.464282 13.1551 0.8089 13.5932C1.15352 14.0312 1.59023 14.3847 2.08679 14.6276C2.58335 14.8705 3.12708 14.9966 3.67784 14.9966H4.49724C4.66606 15.8442 5.11711 16.6063 5.77397 17.1536C6.43082 17.701 7.25308 18 8.10143 18C8.94978 18 9.77204 17.701 10.4289 17.1536C11.0857 16.6063 11.5368 15.8442 11.7056 14.9966H12.322C12.889 14.9966 13.4483 14.863 13.9562 14.6062C14.4642 14.3494 14.907 13.9763 15.2501 13.5162C15.5932 13.056 15.8273 12.5212 15.9341 11.9535C16.041 11.3858 16.0176 10.8006 15.8659 10.2436H15.8651ZM8.10143 16.4964C7.64667 16.4945 7.2036 16.3494 6.83283 16.0809C6.46206 15.8124 6.18171 15.4337 6.03013 14.9966H10.1727C10.0211 15.4337 9.7408 15.8124 9.37003 16.0809C8.99926 16.3494 8.55619 16.4945 8.10143 16.4964ZM14.0785 12.6081C13.8735 12.8853 13.608 13.11 13.3029 13.2643C12.9979 13.4185 12.6618 13.4981 12.3213 13.4968H3.67784C3.34742 13.4967 3.02124 13.421 2.72335 13.2752C2.42547 13.1294 2.1635 12.9173 1.95678 12.6545C1.75006 12.3917 1.60386 12.0849 1.52899 11.7568C1.45411 11.4287 1.45246 11.0877 1.52416 10.7588L2.60542 5.79739C2.86606 4.60218 3.5111 3.5301 4.438 2.75157C5.3649 1.97305 6.52046 1.53276 7.72098 1.50069C8.92151 1.46863 10.0981 1.84663 11.0637 2.57461C12.0293 3.30259 12.7285 4.33877 13.0502 5.51842L14.4477 10.6448C14.5401 10.9788 14.5548 11.3302 14.4907 11.671C14.4266 12.0118 14.2855 12.3326 14.0785 12.6081Z" fill="#3B4047"/>
</svg>
