<svg width="42" height="38" viewBox="0 0 42 38" fill="none" xmlns="http://www.w3.org/2000/svg">
<path d="M10.9387 12.0612C10.7993 11.9219 10.6886 11.7565 10.6132 11.5744C10.5377 11.3923 10.4988 11.1971 10.4988 11C10.4988 10.8028 10.5377 10.6076 10.6132 10.4255C10.6886 10.2435 10.7993 10.078 10.9387 9.93871L19.9387 0.938709C20.0781 0.799245 20.2435 0.688606 20.4256 0.61312C20.6077 0.537633 20.8029 0.498779 21 0.498779C21.1971 0.498779 21.3923 0.537633 21.5744 0.61312C21.7565 0.688606 21.9219 0.799245 22.0613 0.938709L31.0613 9.93871C31.3427 10.2202 31.5008 10.6019 31.5008 11C31.5008 11.398 31.3427 11.7797 31.0613 12.0612C30.7798 12.3427 30.398 12.5008 30 12.5008C29.602 12.5008 29.2202 12.3427 28.9387 12.0612L22.5 5.62058V21.5C22.5 21.8978 22.342 22.2793 22.0607 22.5606C21.7794 22.8419 21.3978 23 21 23C20.6022 23 20.2206 22.8419 19.9393 22.5606C19.658 22.2793 19.5 21.8978 19.5 21.5V5.62058L13.0613 12.0612C12.9219 12.2007 12.7565 12.3113 12.5744 12.3868C12.3923 12.4623 12.1971 12.5011 12 12.5011C11.8029 12.5011 11.6077 12.4623 11.4256 12.3868C11.2435 12.3113 11.0781 12.2007 10.9387 12.0612ZM42 23V35C42 35.7956 41.6839 36.5587 41.1213 37.1213C40.5587 37.6839 39.7957 38 39 38H3C2.20435 38 1.44129 37.6839 0.87868 37.1213C0.31607 36.5587 0 35.7956 0 35V23C0 22.2043 0.31607 21.4412 0.87868 20.8786C1.44129 20.316 2.20435 20 3 20H15.75C15.9489 20 16.1397 20.079 16.2803 20.2196C16.421 20.3603 16.5 20.551 16.5 20.75V21.3987C16.5 23.9206 18.5625 26.0468 21.0863 26C22.2647 25.9774 23.3873 25.4933 24.2126 24.6518C25.038 23.8104 25.5002 22.6786 25.5 21.5V20.75C25.5 20.551 25.579 20.3603 25.7197 20.2196C25.8603 20.079 26.0511 20 26.25 20H39C39.7957 20 40.5587 20.316 41.1213 20.8786C41.6839 21.4412 42 22.2043 42 23ZM34.5 29C34.5 28.555 34.368 28.1199 34.1208 27.7499C33.8736 27.3799 33.5222 27.0915 33.111 26.9212C32.6999 26.7509 32.2475 26.7064 31.811 26.7932C31.3746 26.88 30.9737 27.0943 30.659 27.409C30.3443 27.7236 30.13 28.1245 30.0432 28.561C29.9564 28.9975 30.001 29.4499 30.1713 29.861C30.3416 30.2721 30.63 30.6235 31 30.8708C31.37 31.118 31.805 31.25 32.25 31.25C32.8467 31.25 33.419 31.0129 33.841 30.5909C34.2629 30.169 34.5 29.5967 34.5 29Z" fill="#957021"/>
</svg>
