<svg width="42" height="42" viewBox="0 0 42 42" fill="none" xmlns="http://www.w3.org/2000/svg">
<path d="M39.3488 16.2787C38.6419 15.54 37.9106 14.7788 37.635 14.1094C37.38 13.4963 37.365 12.48 37.35 11.4956C37.3219 9.66562 37.2919 7.59188 35.85 6.15C34.4081 4.70812 32.3344 4.67812 30.5044 4.65C29.52 4.635 28.5037 4.62 27.8906 4.365C27.2231 4.08937 26.46 3.35812 25.7212 2.65125C24.4275 1.40812 22.9575 0 21 0C19.0425 0 17.5744 1.40812 16.2787 2.65125C15.54 3.35812 14.7788 4.08937 14.1094 4.365C13.5 4.62 12.48 4.635 11.4956 4.65C9.66562 4.67812 7.59188 4.70812 6.15 6.15C4.70812 7.59188 4.6875 9.66562 4.65 11.4956C4.635 12.48 4.62 13.4963 4.365 14.1094C4.08937 14.7769 3.35812 15.54 2.65125 16.2787C1.40812 17.5725 0 19.0425 0 21C0 22.9575 1.40812 24.4256 2.65125 25.7212C3.35812 26.46 4.08937 27.2213 4.365 27.8906C4.62 28.5037 4.635 29.52 4.65 30.5044C4.67812 32.3344 4.70812 34.4081 6.15 35.85C7.59188 37.2919 9.66562 37.3219 11.4956 37.35C12.48 37.365 13.4963 37.38 14.1094 37.635C14.7769 37.9106 15.54 38.6419 16.2787 39.3488C17.5725 40.5919 19.0425 42 21 42C22.9575 42 24.4256 40.5919 25.7212 39.3488C26.46 38.6419 27.2213 37.9106 27.8906 37.635C28.5037 37.38 29.52 37.365 30.5044 37.35C32.3344 37.3219 34.4081 37.2919 35.85 35.85C37.2919 34.4081 37.3219 32.3344 37.35 30.5044C37.365 29.52 37.38 28.5037 37.635 27.8906C37.9106 27.2231 38.6419 26.46 39.3488 25.7212C40.5919 24.4275 42 22.9575 42 21C42 19.0425 40.5919 17.5744 39.3488 16.2787ZM29.5613 17.5613L19.0613 28.0613C18.9219 28.2007 18.7565 28.3114 18.5744 28.3868C18.3923 28.4623 18.1971 28.5012 18 28.5012C17.8029 28.5012 17.6077 28.4623 17.4256 28.3868C17.2435 28.3114 17.0781 28.2007 16.9387 28.0613L12.4387 23.5613C12.1573 23.2798 11.9992 22.898 11.9992 22.5C11.9992 22.102 12.1573 21.7202 12.4387 21.4387C12.7202 21.1573 13.102 20.9992 13.5 20.9992C13.898 20.9992 14.2798 21.1573 14.5613 21.4387L18 24.8794L27.4387 15.4387C27.5781 15.2994 27.7436 15.1888 27.9257 15.1134C28.1077 15.038 28.3029 14.9992 28.5 14.9992C28.6971 14.9992 28.8923 15.038 29.0743 15.1134C29.2564 15.1888 29.4219 15.2994 29.5613 15.4387C29.7006 15.5781 29.8112 15.7436 29.8866 15.9257C29.962 16.1077 30.0008 16.3029 30.0008 16.5C30.0008 16.6971 29.962 16.8923 29.8866 17.0743C29.8112 17.2564 29.7006 17.4219 29.5613 17.5613Z" fill="#ABAD26"/>
</svg>
