<svg width="42" height="39" viewBox="0 0 42 39" fill="none" xmlns="http://www.w3.org/2000/svg">
<path d="M40.5 36H39V22.5C39 22.4906 39 22.4831 39 22.4738C39 22.4644 39 22.4194 39 22.3931C39 22.3669 39 22.3406 39 22.3163C39.0009 22.3069 39.0009 22.2975 39 22.2881L36.1875 2.57626C36.0821 1.85936 35.7219 1.20441 35.1731 0.731311C34.6242 0.25821 33.9234 -0.00139885 33.1987 5.6692e-06H29.8013C29.0799 0.00309443 28.3835 0.264734 27.8386 0.73743C27.2936 1.21013 26.9362 1.86254 26.8313 2.57626L24.6637 17.7469L17.4 12.3C17.1771 12.1329 16.9122 12.0311 16.6347 12.0061C16.3573 11.9811 16.0783 12.0338 15.8292 12.1584C15.58 12.2829 15.3705 12.4744 15.224 12.7114C15.0776 12.9484 15 13.2214 15 13.5V19.5L5.4 12.3C5.17715 12.1329 4.91215 12.0311 4.63471 12.0061C4.35727 11.9811 4.07834 12.0338 3.82918 12.1584C3.58002 12.2829 3.37048 12.4744 3.22402 12.7114C3.07757 12.9484 3 13.2214 3 13.5V36H1.5C1.10218 36 0.720644 36.158 0.43934 36.4393C0.158035 36.7207 0 37.1022 0 37.5C0 37.8978 0.158035 38.2794 0.43934 38.5607C0.720644 38.842 1.10218 39 1.5 39H40.5C40.8978 39 41.2794 38.842 41.5607 38.5607C41.842 38.2794 42 37.8978 42 37.5C42 37.1022 41.842 36.7207 41.5607 36.4393C41.2794 36.158 40.8978 36 40.5 36ZM17.25 31.5H12C11.6022 31.5 11.2206 31.342 10.9393 31.0607C10.658 30.7794 10.5 30.3978 10.5 30C10.5 29.6022 10.658 29.2207 10.9393 28.9393C11.2206 28.658 11.6022 28.5 12 28.5H17.25C17.6478 28.5 18.0294 28.658 18.3107 28.9393C18.592 29.2207 18.75 29.6022 18.75 30C18.75 30.3978 18.592 30.7794 18.3107 31.0607C18.0294 31.342 17.6478 31.5 17.25 31.5ZM30 31.5H24.75C24.3522 31.5 23.9706 31.342 23.6893 31.0607C23.408 30.7794 23.25 30.3978 23.25 30C23.25 29.6022 23.408 29.2207 23.6893 28.9393C23.9706 28.658 24.3522 28.5 24.75 28.5H30C30.3978 28.5 30.7794 28.658 31.0607 28.9393C31.342 29.2207 31.5 29.6022 31.5 30C31.5 30.3978 31.342 30.7794 31.0607 31.0607C30.7794 31.342 30.3978 31.5 30 31.5ZM29.0006 21L27.4012 19.8L29.8013 3.00001H33.1987L35.7712 21H29.0006Z" fill="#0F5656"/>
</svg>
