<svg width="46" height="46" viewBox="0 0 46 46" fill="none" xmlns="http://www.w3.org/2000/svg">
<path d="M44.5907 20.8044L25.1957 1.40937C24.9074 1.12103 24.5651 0.892299 24.1884 0.736248C23.8117 0.580197 23.4079 0.499878 23.0001 0.499878C22.5924 0.499878 22.1886 0.580197 21.8118 0.736248C21.4351 0.892299 21.0928 1.12103 20.8045 1.40937L1.40949 20.8044C1.12115 21.0927 0.892421 21.435 0.73637 21.8117C0.580319 22.1885 0.5 22.5922 0.5 23C0.5 23.4078 0.580319 23.8115 0.73637 24.1883C0.892421 24.565 1.12115 24.9073 1.40949 25.1956L20.8045 44.5906C21.0928 44.879 21.4351 45.1077 21.8118 45.2637C22.1886 45.4198 22.5924 45.5001 23.0001 45.5001C23.4079 45.5001 23.8117 45.4198 24.1884 45.2637C24.5651 45.1077 24.9074 44.879 25.1957 44.5906L44.5907 25.1956C44.8791 24.9073 45.1078 24.565 45.2639 24.1883C45.4199 23.8115 45.5002 23.4078 45.5002 23C45.5002 22.5922 45.4199 22.1885 45.2639 21.8117C45.1078 21.435 44.8791 21.0927 44.5907 20.8044ZM31.5614 22.5612L27.0614 27.0612C26.7799 27.3427 26.3982 27.5008 26.0001 27.5008C25.6021 27.5008 25.2203 27.3427 24.9389 27.0612C24.6574 26.7798 24.4993 26.398 24.4993 26C24.4993 25.602 24.6574 25.2202 24.9389 24.9387L26.8795 23H20.0001C19.2045 23 18.4414 23.3161 17.8788 23.8787C17.3162 24.4413 17.0001 25.2043 17.0001 26V27.5C17.0001 27.8978 16.8421 28.2794 16.5608 28.5607C16.2795 28.842 15.8979 29 15.5001 29C15.1023 29 14.7208 28.842 14.4395 28.5607C14.1582 28.2794 14.0001 27.8978 14.0001 27.5V26C14.0001 24.4087 14.6323 22.8826 15.7575 21.7574C16.8827 20.6321 18.4088 20 20.0001 20H26.8795L24.9389 18.0612C24.6574 17.7798 24.4993 17.398 24.4993 17C24.4993 16.6019 24.6574 16.2202 24.9389 15.9387C25.2203 15.6573 25.6021 15.4992 26.0001 15.4992C26.3982 15.4992 26.7799 15.6573 27.0614 15.9387L31.5614 20.4387C31.7008 20.5781 31.8115 20.7435 31.887 20.9256C31.9624 21.1077 32.0013 21.3029 32.0013 21.5C32.0013 21.6971 31.9624 21.8923 31.887 22.0744C31.8115 22.2565 31.7008 22.4219 31.5614 22.5612Z" fill="#DBAA00"/>
</svg>
