<svg width="28" height="40" viewBox="0 0 28 40" fill="none" xmlns="http://www.w3.org/2000/svg">
<path d="M27.5 10.1825V3.5C27.5 2.70435 27.1839 1.94129 26.6213 1.37868C26.0587 0.81607 25.2956 0.5 24.5 0.5H3.5C2.70435 0.5 1.94129 0.81607 1.37868 1.37868C0.81607 1.94129 0.5 2.70435 0.5 3.5V10.25C0.501013 10.7156 0.609894 11.1745 0.818097 11.591C1.0263 12.0074 1.32816 12.3699 1.7 12.65L11.5006 20L1.7 27.35C1.32816 27.6301 1.0263 27.9926 0.818097 28.409C0.609894 28.8255 0.501013 29.2844 0.5 29.75V36.5C0.5 37.2957 0.81607 38.0587 1.37868 38.6213C1.94129 39.1839 2.70435 39.5 3.5 39.5H24.5C25.2956 39.5 26.0587 39.1839 26.6213 38.6213C27.1839 38.0587 27.5 37.2957 27.5 36.5V29.8175C27.4989 29.3537 27.391 28.8965 27.1845 28.4812C26.978 28.0659 26.6785 27.7039 26.3094 27.4231L16.4881 20L26.3094 12.5769C26.6785 12.2961 26.978 11.9341 27.1845 11.5188C27.391 11.1035 27.4989 10.6463 27.5 10.1825ZM24.5 29.8175V36.5H3.5V29.75L12.5 23V27.5C12.5 27.8978 12.658 28.2794 12.9393 28.5607C13.2206 28.842 13.6022 29 14 29C14.3978 29 14.7794 28.842 15.0607 28.5607C15.342 28.2794 15.5 27.8978 15.5 27.5V23.015L24.5 29.8175ZM24.5 10.1825L23.4181 11H4.49938L3.5 10.25V3.5H24.5V10.1825Z" fill="#3A8256"/>
</svg>
