<svg width="34" height="41" viewBox="0 0 34 41" fill="none" xmlns="http://www.w3.org/2000/svg">
<path d="M30.5 2.99997H23.7013C22.8584 2.05633 21.8258 1.30133 20.671 0.784394C19.5162 0.267458 18.2652 0.000244141 17 0.000244141C15.7348 0.000244141 14.4838 0.267458 13.329 0.784394C12.1742 1.30133 11.1416 2.05633 10.2987 2.99997H3.5C2.70435 2.99997 1.94129 3.31604 1.37868 3.87865C0.81607 4.44126 0.5 5.20432 0.5 5.99997V37.5C0.5 38.2956 0.81607 39.0587 1.37868 39.6213C1.94129 40.1839 2.70435 40.5 3.5 40.5H30.5C31.2956 40.5 32.0587 40.1839 32.6213 39.6213C33.1839 39.0587 33.5 38.2956 33.5 37.5V5.99997C33.5 5.20432 33.1839 4.44126 32.6213 3.87865C32.0587 3.31604 31.2956 2.99997 30.5 2.99997ZM17 2.99997C18.5913 2.99997 20.1174 3.63211 21.2426 4.75733C22.3679 5.88255 23 7.40867 23 8.99997H11C11 7.40867 11.6321 5.88255 12.7574 4.75733C13.8826 3.63211 15.4087 2.99997 17 2.99997ZM23 27H11C10.6022 27 10.2206 26.8419 9.93934 26.5606C9.65804 26.2793 9.5 25.8978 9.5 25.5C9.5 25.1021 9.65804 24.7206 9.93934 24.4393C10.2206 24.158 10.6022 24 11 24H23C23.3978 24 23.7794 24.158 24.0607 24.4393C24.342 24.7206 24.5 25.1021 24.5 25.5C24.5 25.8978 24.342 26.2793 24.0607 26.5606C23.7794 26.8419 23.3978 27 23 27ZM23 21H11C10.6022 21 10.2206 20.8419 9.93934 20.5606C9.65804 20.2793 9.5 19.8978 9.5 19.5C9.5 19.1021 9.65804 18.7206 9.93934 18.4393C10.2206 18.158 10.6022 18 11 18H23C23.3978 18 23.7794 18.158 24.0607 18.4393C24.342 18.7206 24.5 19.1021 24.5 19.5C24.5 19.8978 24.342 20.2793 24.0607 20.5606C23.7794 20.8419 23.3978 21 23 21Z" fill="#3B4047"/>
</svg>
