<svg width="40" height="39" viewBox="0 0 40 39" fill="none" xmlns="http://www.w3.org/2000/svg">
<path d="M18.5059 25.8638V38.115C18.5066 38.2212 18.4847 38.3264 18.4418 38.4235C18.3988 38.5206 18.3357 38.6075 18.2566 38.6784C18.1776 38.7493 18.0844 38.8026 17.9832 38.8348C17.882 38.8669 17.7751 38.8773 17.6696 38.865C14.2036 38.4394 10.9148 37.0932 8.14506 34.9664C5.37532 32.8397 3.22571 30.0099 1.91962 26.7713C1.88058 26.6728 1.86283 26.5672 1.86755 26.4614C1.87227 26.3556 1.89934 26.252 1.94699 26.1574C1.99464 26.0628 2.06178 25.9794 2.144 25.9126C2.22621 25.8459 2.32164 25.7973 2.42399 25.77L14.2534 22.5938C14.4048 22.5541 14.5649 22.5627 14.7111 22.6185C14.8574 22.6743 14.9825 22.7745 15.069 22.905C15.7852 23.9412 16.8072 24.7278 17.9921 25.155C18.1412 25.2045 18.2709 25.2995 18.3631 25.4267C18.4553 25.5539 18.5052 25.7067 18.5059 25.8638ZM20.0171 4.21917e-05C19.8192 -0.00144231 19.6229 0.0362605 19.4396 0.110978C19.2563 0.185695 19.0897 0.295949 18.9492 0.435385C18.8087 0.574821 18.6972 0.740681 18.6211 0.923407C18.545 1.10613 18.5059 1.30211 18.5059 1.50004V12C18.5029 12.3946 18.6566 12.7741 18.9333 13.0554C19.21 13.3366 19.587 13.4966 19.9815 13.5C21.3981 13.4939 22.7712 13.9893 23.8577 14.8984C24.9442 15.8075 25.674 17.0717 25.9178 18.4672C26.1617 19.8627 25.9039 21.2995 25.1901 22.5232C24.4763 23.7469 23.3525 24.6785 22.0177 25.1532C21.8687 25.2031 21.7392 25.2985 21.6473 25.426C21.5555 25.5535 21.506 25.7066 21.5059 25.8638V38.115C21.5052 38.2211 21.527 38.326 21.5699 38.423C21.6127 38.5199 21.6756 38.6067 21.7545 38.6776C21.8333 38.7485 21.9263 38.8018 22.0273 38.8341C22.1282 38.8664 22.2349 38.877 22.3402 38.865C27.2818 38.2806 31.8129 35.8292 35.0059 32.0127C38.1989 28.1963 39.8121 23.3036 39.5151 18.3365C39.2182 13.3694 37.0337 8.7037 33.4088 5.29479C29.784 1.88589 24.9931 -0.00832097 20.0171 4.21917e-05ZM14.0171 19.0294C14.0869 18.1434 14.3527 17.2839 14.7952 16.5132V16.5C14.9439 16.2433 15.0131 15.9483 14.994 15.6523C14.975 15.3562 14.8686 15.0725 14.6884 14.8369C14.5623 14.6749 14.4055 14.5392 14.2271 14.4375L5.16524 9.19879C4.9945 9.10034 4.80604 9.0365 4.61061 9.01092C4.41519 8.98534 4.21664 8.99853 4.02632 9.04972C3.83599 9.10092 3.65762 9.18912 3.5014 9.30928C3.34518 9.42945 3.21417 9.57922 3.11587 9.75004C0.933571 13.5296 0.0806705 17.9314 0.693367 22.2525C0.707824 22.358 0.744565 22.4592 0.80115 22.5494C0.857735 22.6395 0.932865 22.7166 1.02155 22.7755C1.11023 22.8344 1.21043 22.8737 1.31549 22.8909C1.42055 22.908 1.52806 22.9026 1.63087 22.875L13.4846 19.6875C13.6315 19.6469 13.7623 19.5619 13.8589 19.4441C13.9556 19.3263 14.0135 19.1814 14.0246 19.0294H14.0171Z" fill="#3A8245"/>
</svg>
