<svg width="42" height="36" viewBox="0 0 42 36" fill="none" xmlns="http://www.w3.org/2000/svg">
<path d="M41.8932 18.9375L35.8932 3.9375C35.7809 3.6601 35.5883 3.42261 35.3401 3.25554C35.0918 3.08848 34.7993 2.99948 34.5 3C34.3908 3.00166 34.2821 3.01486 34.1757 3.03937L22.5 5.625V1.5C22.5 1.10218 22.342 0.720645 22.0607 0.43934C21.7794 0.158036 21.3979 0 21 0C20.6022 0 20.2207 0.158036 19.9394 0.43934C19.6581 0.720645 19.5 1.10218 19.5 1.5V6.29625L7.17565 9.03938C6.93805 9.09122 6.71661 9.20007 6.53043 9.35653C6.34424 9.51299 6.19889 9.71237 6.1069 9.9375L0.106904 24.9375C0.0351272 25.1163 -0.00117233 25.3073 2.88652e-05 25.5C2.88652e-05 29.8706 4.60128 31.5 7.50003 31.5C10.3988 31.5 15 29.8706 15 25.5C15.0012 25.3073 14.9649 25.1163 14.8932 24.9375L9.54753 11.5819L19.5 9.375V33H16.5C16.1022 33 15.7207 33.158 15.4394 33.4393C15.1581 33.7206 15 34.1022 15 34.5C15 34.8978 15.1581 35.2794 15.4394 35.5607C15.7207 35.842 16.1022 36 16.5 36H25.5C25.8979 36 26.2794 35.842 26.5607 35.5607C26.842 35.2794 27 34.8978 27 34.5C27 34.1022 26.842 33.7206 26.5607 33.4393C26.2794 33.158 25.8979 33 25.5 33H22.5V8.70375L32.0625 6.58125L27.1069 18.9375C27.0351 19.1163 26.9988 19.3073 27 19.5C27 23.8706 31.6013 25.5 34.5 25.5C37.3988 25.5 42 23.8706 42 19.5C42.0012 19.3073 41.9649 19.1163 41.8932 18.9375ZM11.8932 25.5H3.11628L7.50003 14.5387L11.8932 25.5ZM30.1257 19.5L34.5 8.53875L38.8838 19.5H30.1257Z" fill="black"/>
</svg>
