<svg width="40" height="37" viewBox="0 0 40 37" fill="none" xmlns="http://www.w3.org/2000/svg">
<path d="M38.7143 5.5175L38.6993 5.53437L26 19.0944V29.4988C26.0007 29.9936 25.879 30.4809 25.6458 30.9173C25.4125 31.3537 25.0749 31.7257 24.6631 32L18.6631 36.0013C18.2109 36.3024 17.6855 36.4752 17.1428 36.501C16.6002 36.5269 16.0606 36.4049 15.5819 36.1481C15.1031 35.8913 14.7031 35.5094 14.4245 35.043C14.1459 34.5766 13.9991 34.0433 14 33.5V19.0944L1.30058 5.53437L1.28558 5.5175C0.8951 5.08778 0.637717 4.55398 0.54465 3.98086C0.451582 3.40773 0.52683 2.81992 0.761264 2.28872C0.995698 1.75752 1.37924 1.30577 1.86537 0.988262C2.3515 0.670757 2.91932 0.501144 3.49995 0.5H36.5C37.0811 0.500056 37.6496 0.668882 38.1366 0.985965C38.6236 1.30305 39.008 1.75474 39.2431 2.28615C39.4782 2.81757 39.554 3.40583 39.4611 3.97947C39.3682 4.55311 39.1107 5.08742 38.72 5.5175H38.7143Z" fill="#638C1C"/>
</svg>
