<svg width="16" height="16" viewBox="0 0 16 16" fill="none" xmlns="http://www.w3.org/2000/svg">
<path fill-rule="evenodd" clip-rule="evenodd" d="M5.02541 2.00604C5.02541 0.898131 5.90608 0 6.99246 0H8.76335C9.84972 0 10.7304 0.898138 10.7304 2.00604C10.7304 2.43057 11.181 2.69593 11.5415 2.48364C12.4824 1.92969 13.6854 2.25841 14.2286 3.21791L15.1141 4.782C15.6572 5.74148 15.3349 6.96836 14.3941 7.52233C14.0335 7.73462 14.0335 8.26531 14.3941 8.4776C15.3349 9.03156 15.6572 10.2584 15.1141 11.2179L14.2286 12.782C13.6854 13.7415 12.4824 14.0703 11.5416 13.5163C11.1811 13.304 10.7304 13.5693 10.7304 13.9939C10.7304 15.1018 9.84972 16 8.76335 16H6.99246C5.90608 16 5.02541 15.1018 5.02541 13.9939C5.02541 13.5693 4.57475 13.304 4.21425 13.5163C3.27345 14.0703 2.07044 13.7415 1.52726 12.782L0.641789 11.2179C0.098611 10.2584 0.420957 9.03156 1.36177 8.4776C1.72229 8.26531 1.72229 7.73462 1.36177 7.52233C0.420957 6.96836 0.098611 5.74148 0.641789 4.782L1.52726 3.21789C2.07044 2.25841 3.27346 1.92968 4.21426 2.48364C4.57478 2.69591 5.02541 2.43056 5.02541 2.00604ZM6.99246 1.45455C6.6938 1.45455 6.4517 1.70145 6.4517 2.00604C6.4517 3.5503 4.81246 4.51543 3.50114 3.74331C3.24249 3.59101 2.91175 3.68139 2.76242 3.94516L1.87695 5.50927C1.72762 5.77305 1.81624 6.11036 2.07489 6.26265C3.38625 7.03476 3.38625 8.96509 2.07489 9.73724C1.81624 9.88953 1.72762 10.2268 1.87695 10.4906L2.76242 12.0548C2.91175 12.3185 3.24248 12.4089 3.50113 12.2566C4.8125 11.4844 6.4517 12.4497 6.4517 13.9939C6.4517 14.2985 6.6938 14.5455 6.99246 14.5455H8.76335C9.06201 14.5455 9.30418 14.2985 9.30418 13.9939C9.30418 12.4497 10.9433 11.4844 12.2547 12.2566C12.5134 12.4089 12.8441 12.3185 12.9935 12.0547L13.8789 10.4906C14.0282 10.2268 13.9396 9.88953 13.681 9.73724C12.3696 8.96509 12.3696 7.03476 13.681 6.26265C13.9396 6.11036 14.0282 5.77305 13.8789 5.50927L12.9935 3.94518C12.8441 3.6814 12.5134 3.59101 12.2547 3.74332C10.9434 4.51543 9.30418 3.55032 9.30418 2.00604C9.30418 1.70146 9.06201 1.45455 8.76335 1.45455H6.99246ZM7.87794 5.81818C6.69637 5.81818 5.73854 6.79498 5.73854 8C5.73854 9.20502 6.69637 10.1818 7.87794 10.1818C9.05944 10.1818 10.0173 9.20502 10.0173 8C10.0173 6.79498 9.05944 5.81818 7.87794 5.81818ZM4.31229 8C4.31229 5.99169 5.90867 4.36364 7.87794 4.36364C9.84716 4.36364 11.4436 5.99169 11.4436 8C11.4436 10.0083 9.84716 11.6364 7.87794 11.6364C5.90867 11.6364 4.31229 10.0083 4.31229 8Z" fill="#3B4047"/>
</svg>
